<?xml version="1.0" encoding="UTF-8"?>
<svg id="Layer_1" data-name="Layer 1" xmlns="http://www.w3.org/2000/svg" viewBox="0 0 1000 516">
  <defs>
    <style>
      .cls-1 {
        fill: #2b2130;
      }

      .cls-2 {
        fill: #76b82a;
      }
    </style>
  </defs>
  <g>
    <rect class="cls-1" x="141.32" width="39.44" height="201.47"/>
    <path class="cls-1" d="M336.17,70.09c-9.31-10.65-22.69-15.97-40.15-15.97-10.94,0-20.44,2.83-28.49,8.49-5.31,3.73-9.78,8.65-13.55,14.55l-1.7-19.59h-35.69v143.91h37.99v-75.41c0-12.09,2.63-21.2,7.91-27.34,5.27-6.14,12.81-9.11,22.59-8.92,5.37,0,10.07,1.2,14.11,3.59,4.03,2.4,7.14,6.29,9.35,11.66,2.2,5.37,3.31,12.95,3.31,22.74v73.68h37.99v-82.31c.19-22.06-4.37-38.43-13.67-49.07Z"/>
    <path class="cls-1" d="M454.95,164.64c-2.5,1.73-4.89,3.02-7.2,3.88-2.3.86-4.42,1.29-6.33,1.29-5.18,0-9.12-1.58-11.8-4.75-2.69-3.16-4.03-7.81-4.03-13.95v-61.31h35.98v-32.24h-35.98V12.67h-37.99v44.89h-23.32v32.24h23.32v69.65c0,14.58,4.07,25.81,12.23,33.68,8.15,7.87,20.19,11.8,36.12,11.8,5.56,0,11.18-1.1,16.84-3.31,5.65-2.2,10.79-5.04,15.4-8.49l-13.24-28.49Z"/>
    <path class="cls-1" d="M571.09,164.92c-4.7,3.27-10.8,4.89-18.28,4.89-6.91,0-13.24-1.48-19-4.46-5.75-2.97-10.36-7.34-13.82-13.09-2.17-3.63-3.58-7.89-4.39-12.66h105.41c0-18.23-3.26-33.72-9.78-46.48-6.53-12.76-15.12-22.45-25.76-29.07-10.65-6.62-22.21-9.93-34.68-9.93-14.58,0-27.49,3.21-38.71,9.64-11.23,6.43-20.06,15.3-26.48,26.62-6.43,11.32-9.64,24.37-9.64,39.14s3.12,27.82,9.36,39.15c6.23,11.32,14.82,20.19,25.76,26.62,10.94,6.42,23.51,9.64,37.71,9.64,11.32,0,21.39-1.54,30.22-4.6,8.82-3.07,16.45-7.53,22.88-13.38,6.42-5.85,11.65-12.81,15.69-20.87l-35.69-13.82c-2.5,5.18-6.1,9.4-10.79,12.66ZM530.36,92.39c5.18-3.07,11.51-4.61,18.99-4.61,6.72,0,12.57,1.68,17.56,5.04,4.99,3.36,8.88,8.82,11.66,16.4.08.22.13.5.21.72h-61.29c.38-1.23.75-2.48,1.22-3.59,2.59-6.24,6.48-10.89,11.66-13.96Z"/>
  </g>
  <g>
    <rect class="cls-2" x="642.2" width="37.99" height="201.47"/>
    <rect class="cls-2" x="642.2" y="314" width="37.99" height="201.47"/>
    <path class="cls-2" d="M661.19,279.61c-5.75,0-10.85-2.16-15.25-6.48-4.42-4.32-6.62-9.45-6.62-15.4s2.2-11.08,6.62-15.4c4.41-4.32,9.5-6.48,15.25-6.48s11.08,2.16,15.4,6.48c4.32,4.32,6.48,9.45,6.48,15.4s-2.16,11.08-6.48,15.4c-4.32,4.32-9.45,6.48-15.4,6.48Z"/>
  </g>
  <g>
    <path class="cls-1" d="M159.16,457.91h41.73l-79.43-201.47h-42.03L0,457.91h41.73l16.97-44.32h83.49l16.97,44.32ZM72.04,378.76l28.41-74.2,28.41,74.2h-56.82Z"/>
    <path class="cls-1" d="M276.58,320.91c-8.44,4.44-15.44,11.04-21.15,19.56v-26.47h-37.99v143.91h37.99v-75.69c0-7.49,2.39-13.62,7.19-18.42,4.8-4.8,11.08-8.25,18.86-10.36,7.77-2.11,16.07-3.17,24.9-3.17v-36.84c-10.37,0-20.29,2.49-29.79,7.48Z"/>
    <path class="cls-1" d="M393.42,461.36c-14.97,0-28.31-3.21-40.01-9.64-11.7-6.43-20.82-15.35-27.34-26.77-6.53-11.42-9.79-24.42-9.79-39s3.26-27.82,9.79-39.14c6.52-11.32,15.54-20.19,27.06-26.62,11.51-6.43,24.75-9.64,39.72-9.64s27.53,3.55,39.43,10.65c11.89,7.11,20.53,17.37,25.91,30.79l-35.69,12.67c-2.69-5.56-6.86-10.02-12.52-13.38-5.66-3.36-11.94-5.04-18.85-5.04s-13.34,1.68-18.71,5.04c-5.37,3.36-9.6,8.01-12.66,13.96-3.07,5.94-4.61,12.85-4.61,20.72s1.54,14.73,4.61,20.58c3.06,5.85,7.38,10.5,12.95,13.96,5.56,3.45,11.89,5.18,18.99,5.18s13.19-1.82,18.86-5.46c5.65-3.64,9.83-8.44,12.52-14.39l35.98,12.67c-5.56,13.63-14.24,24.18-26.04,31.65-11.8,7.49-25,11.23-39.57,11.23Z"/>
    <path class="cls-1" d="M598.57,326.53c-9.21-10.65-22.65-15.97-40.29-15.97-10.75,0-20.2,2.83-28.35,8.49-5.19,3.6-9.56,8.33-13.27,13.95l-.11-78.28h-37.99l.29,203.2h37.99l-.11-75.41h.11c0-12.09,2.63-21.2,7.91-27.34,5.27-6.14,12.81-9.11,22.59-8.92,5.37,0,10.07,1.2,14.11,3.59,4.03,2.4,7.19,6.29,9.49,11.66,2.3,5.37,3.46,12.95,3.46,22.74v73.68h37.99v-82.31c0-22.06-4.61-38.43-13.82-49.07Z"/>
    <polygon class="cls-1" points="814.08 314 775.22 416.25 736.37 314 697.22 314 756.23 457.91 759.39 457.91 791.05 457.91 794.22 457.91 853.22 314 814.08 314"/>
    <path class="cls-1" d="M950.07,421.36c-4.7,3.27-10.8,4.89-18.28,4.89-6.91,0-13.24-1.48-19-4.46-5.75-2.97-10.36-7.34-13.82-13.09-2.17-3.63-3.58-7.89-4.39-12.66h105.41c0-18.23-3.26-33.72-9.78-46.48-6.53-12.76-15.12-22.45-25.76-29.07-10.65-6.62-22.21-9.93-34.68-9.93-14.58,0-27.49,3.21-38.71,9.64-11.23,6.43-20.06,15.3-26.48,26.62-6.43,11.32-9.64,24.37-9.64,39.14s3.12,27.82,9.36,39.15c6.23,11.32,14.82,20.19,25.76,26.62,10.94,6.42,23.51,9.64,37.71,9.64,11.32,0,21.39-1.54,30.22-4.6,8.82-3.07,16.45-7.53,22.88-13.38,6.42-5.85,11.65-12.81,15.69-20.87l-35.69-13.82c-2.5,5.18-6.1,9.4-10.79,12.66ZM909.34,348.83c5.18-3.07,11.51-4.61,18.99-4.61,6.72,0,12.57,1.68,17.56,5.04,4.99,3.36,8.88,8.82,11.66,16.4.08.22.13.5.21.72h-61.29c.38-1.23.75-2.48,1.22-3.59,2.59-6.24,6.48-10.89,11.66-13.96Z"/>
  </g>
</svg>