<?xml version="1.0" encoding="UTF-8"?>
<svg id="Layer_1" data-name="Layer 1" xmlns="http://www.w3.org/2000/svg" viewBox="0 0 500 474">
  <defs>
    <style>
      .cls-1 {
        fill: #2b2130;
      }

      .cls-2 {
        fill: #76b82a;
      }
    </style>
  </defs>
  <g>
    <rect class="cls-2" x="0" y="395.57" width="348.83" height="70.25"/>
    <path class="cls-2" d="M415.37,430.69c0-11.13,4.18-20.98,12.53-29.51,8.35-8.54,18.28-12.81,29.79-12.81,11.51,0,21.44,4.26,29.79,12.81,8.35,8.53,12.53,18.38,12.53,29.51,0,11.5-4.18,21.44-12.53,29.79-8.35,8.35-18.28,12.53-29.79,12.53-11.51,0-21.44-4.18-29.79-12.53-8.35-8.35-12.53-18.29-12.53-29.79Z"/>
  </g>
  <g>
    <path class="cls-1" d="M394.95,360.37h74.64L327.51,0h-75.17L110.26,360.37h74.64l30.36-79.28h149.34l30.36,79.28ZM239.11,218.79l50.82-132.73,50.82,132.73h-101.64Z"/>
    <rect class="cls-1" x="0" y="0" width="70.54" height="360.37"/>
  </g>
</svg>